<?xml version="1.0" encoding="utf-8"?>
<!-- Generator: Adobe Illustrator 22.0.1, SVG Export Plug-In . SVG Version: 6.00 Build 0)  -->
<svg version="1.1" id="Capa_1" xmlns="http://www.w3.org/2000/svg" xmlns:xlink="http://www.w3.org/1999/xlink" x="0px" y="0px"
	 viewBox="0 0 660.5 168.9" style="enable-background:new 0 0 660.5 168.9;" xml:space="preserve">
<style type="text/css">
	.st0{fill:#E4B022;}
	.st1{fill:#C8002D;}
	.st2{fill:#FFFFFF;}
	.st3{fill-rule:evenodd;clip-rule:evenodd;fill:#C8002D;}
</style>
<g>
	<g>
		<g>
			<path class="st0" d="M269.1,107.9h-10.5c-1.4,0-2.5,1.1-2.5,2.5v10.1c0,1.4-1.1,2.5-2.5,2.5h-14.9c-1.4,0-2.5-1.1-2.5-2.5V63.2
				c0-1.4,1.1-2.5,2.5-2.5h28.9c14.3,0,21.4,7.7,21.4,23c0,3.4-0.3,6.5-1,9.4c-0.7,2.9-1.8,5.5-3.4,7.7c-1.6,2.2-3.6,3.9-6.1,5.2
				C276,107.2,272.9,107.9,269.1,107.9z M260.8,76.6h-2.1c-1.4,0-2.5,1.1-2.5,2.5v10.4c0,1.4,1.1,2.5,2.5,2.5h2.1
				c2.4,0,4.2-0.2,5.3-0.7c1.1-0.5,1.6-1.7,1.6-3.5v-7c0-1.8-0.5-2.9-1.6-3.4C264.9,76.9,263.2,76.6,260.8,76.6z"/>
		</g>
		<g>
			<path class="st0" d="M313.6,107.8L313.6,107.8c0,1,0.7,1.8,1.7,1.8c0.4,0,0.9,0.1,1.3,0.1c1,0.1,2,0.1,3,0.1
				c5.5,0,11.1-0.8,16.8-2.4c1-0.3,2.1,0.4,2.3,1.5l1.7,10.9c0.1,0.9-0.4,1.8-1.4,2.1c-6.9,1.7-13.7,2.6-20.4,2.6
				c-9.3,0-16-2.2-20.1-6.5c-4.1-4.3-6.2-11-6.2-19.9c0-8.9,2.1-15.5,6.3-19.9c4.2-4.3,10.9-6.5,20.1-6.5c4.6,0,8.5,0.3,11.6,0.9
				c3.1,0.6,5.6,1.5,7.5,2.9c1.9,1.4,3.3,3.2,4.1,5.5c0.8,2.3,1.2,5.2,1.2,8.7c0,2.9-0.5,5.3-1.5,7.4c-1,2.1-2.6,3.8-4.8,5.1
				c-2.3,1.3-5.3,2.3-9,2.9c-3.3,0.6-7.4,0.9-12.2,0.9C314.4,106,313.6,106.8,313.6,107.8z M313.6,90.4v2.2c0,1,0.8,1.8,1.8,1.8h2.2
				c2.4,0,4.2-0.2,5.3-0.7c1.1-0.5,1.6-1.7,1.6-3.5V88c0-1-0.8-1.8-1.8-1.8h-2.2c-2.4,0-4.2,0.2-5.3,0.7
				C314.1,87.4,313.6,88.6,313.6,90.4z"/>
		</g>
		<g>
			<path class="st0" d="M351.6,58.1l15.4-1.2c1.3-0.1,2.4,0.9,2.4,2.2v47.6c0,1.1,0.8,2,1.9,2.2c0.3,0.1,0.6,0.1,0.9,0.1l0,0
				c1.2,0.2,2,1.2,1.9,2.4l-0.6,10.4c-0.1,1.2-1.1,2.1-2.3,2.1c-7.3-0.1-12.2-0.6-14.7-1.5c-2.3-0.8-4.1-1.9-5.3-3.2
				c-1.2-1.3-1.8-3.2-1.8-5.7V60.3C349.5,59.1,350.4,58.2,351.6,58.1z"/>
		</g>
		<g>
			<path class="st0" d="M377.5,98c0-8.9,2.1-15.5,6.2-19.9c4.1-4.3,10.9-6.5,20.1-6.5c9.3,0,16,2.2,20.1,6.5
				c4.1,4.3,6.2,11,6.2,19.9c0,8.9-2.1,15.5-6.2,19.9c-4.1,4.3-10.9,6.5-20.1,6.5c-9.1,0-15.7-2.1-20-6.4
				C379.6,113.7,377.5,107.1,377.5,98z M398.9,90.4v16.4c0,1.7,1.4,3.1,3.1,3.1l0,0c2.4,0,4.2-0.2,5.3-0.7c1.1-0.5,1.6-1.7,1.6-3.5
				V89.2c0-1.7-1.4-3.1-3.1-3.1h0c-2.4,0-4.2,0.2-5.3,0.7C399.4,87.4,398.9,88.6,398.9,90.4z"/>
		</g>
		<g>
			<path class="st0" d="M442,75.1c4.3-2.3,10.1-3.5,17.5-3.5c6,0,11.6,0.7,16.8,2c2.1,0.5,3.4,2.6,3.1,4.7l-0.9,5.5
				c-0.4,2.3-2.6,3.8-5,3.3c-1.2-0.2-2.3-0.4-3.5-0.6c-2.5-0.3-5.1-0.5-7.8-0.5c-0.8,0-1.7,0-2.9,0.1c-0.7,0-1.5,0.1-2.3,0.2
				c-0.9,0.1-1.5,0.8-1.5,1.7l0,0c0,0.9,0.7,1.6,1.6,1.7c2.5,0,5.1,0.2,7.7,0.4c3.2,0.3,6.1,1,8.7,2.2c2.6,1.1,4.8,2.8,6.5,5.1
				c1.7,2.2,2.5,5.3,2.5,9.2c0,2.7-0.3,5.1-0.9,7.3c-0.6,2.1-1.5,3.8-2.8,5.1c-1.3,1.3-2.7,2.3-4.1,3.1c-1.4,0.8-3.2,1.3-5.5,1.7
				c-1.8,0.3-3.7,0.5-5.7,0.6c-2,0.1-4.2,0.2-6.5,0.2c-7.5,0-14.5-0.8-20.8-2.5c-0.8-0.2-1.4-1.1-1.2-1.9l1.4-8.2
				c0.4-2.3,2.7-3.8,5-3.3c1.5,0.3,3,0.6,4.5,0.8c3,0.4,6.1,0.7,9.4,0.7c1.5,0,2.9,0,4.3-0.1c0.8,0,1.6-0.1,2.4-0.2
				c0.9-0.1,1.5-0.8,1.5-1.7v0c0-0.9-0.7-1.7-1.7-1.7c-4.6-0.1-8.5-0.4-11.6-1c-3.6-0.7-6.4-1.8-8.6-3.2c-2.2-1.4-3.7-3.3-4.6-5.6
				c-0.9-2.3-1.4-5.1-1.4-8.3C435.5,81.8,437.7,77.5,442,75.1z"/>
		</g>
		<g>
			<path class="st0" d="M488.6,63.8c0-1.5,0.2-2.7,0.5-3.8c0.3-1,0.9-1.9,1.7-2.5c0.8-0.6,2-1.1,3.4-1.4c1.4-0.3,3.3-0.4,5.5-0.4
				c2.2,0,4,0.1,5.4,0.4c1.4,0.3,2.5,0.7,3.4,1.4c0.8,0.6,1.4,1.5,1.7,2.5c0.3,1,0.5,2.3,0.5,3.8c0,1.5-0.2,2.7-0.5,3.7
				c-0.3,1-0.9,1.8-1.7,2.4c-0.8,0.6-1.9,1.1-3.4,1.3c-1.4,0.2-3.2,0.4-5.4,0.4c-1.6,0-3.1-0.1-4.4-0.2c-1.4-0.1-2.5-0.4-3.5-1
				c-1-0.5-1.8-1.3-2.3-2.4C488.8,67.1,488.6,65.7,488.6,63.8z M507.1,122.9h-14.9c-1.4,0-2.5-1.1-2.5-2.5V77.8
				c0-1.2,0.9-2.3,2.2-2.5l14.9-1.9c1.5-0.2,2.8,1,2.8,2.5v44.5C509.5,121.8,508.4,122.9,507.1,122.9z"/>
		</g>
	</g>
	<g>
		<g>
			<path class="st0" d="M54.6,77.1H43.7v42.7c0,1.9-1.6,3.5-3.5,3.5H27.3c-1.9,0-3.5-1.6-3.5-3.5V77.1H12.9c-1.9,0-3.5-1.6-3.5-3.5
				v-8.9c0-1.9,1.6-3.5,3.5-3.5h41.7c1.9,0,3.5,1.6,3.5,3.5v8.9C58.1,75.5,56.6,77.1,54.6,77.1z"/>
		</g>
		<g>
			<path class="st0" d="M64.9,73.6h13.8c1.7,0,3.1,1.4,3.1,3.1v30.6c0,1.7,1.4,3.1,3.1,3.1l0,0c2.4,0,4.2-0.2,5.3-0.7
				c1.1-0.5,1.6-1.7,1.6-3.5V76.7c0-1.7,1.4-3.1,3.1-3.1h13.8c1.7,0,3.1,1.4,3.1,3.1v43.6c0,1.7-1.4,3.1-3.1,3.1h-5.6
				c-0.8,0-1.6-0.3-2.1-0.9l-2.7-2.6c-1.2-1.1-3-1.2-4.2-0.1c-3.8,3.4-8.8,5.1-15,5.1c-5.9,0-10.2-1.3-12.9-3.8
				c-2.7-2.5-4.1-6.7-4.1-12.6V76.7C61.8,75,63.2,73.6,64.9,73.6z"/>
		</g>
		<g>
			<path class="st0" d="M122.6,86.4H121c-1.8,0-3.3-1.5-3.3-3.3v-6.2c0-1.8,1.5-3.3,3.3-3.3h1.7v-5.4c0-1.5,1-2.9,2.5-3.2l13.2-3.3
				c2.1-0.5,4.1,1.1,4.1,3.2v8.7h3.5c1.8,0,3.3,1.5,3.3,3.3v6.2c0,1.8-1.5,3.3-3.3,3.3h-3.5v22.6c0.8,0.2,1.7,0.3,2.7,0.5
				c0,0,0,0,0,0c1.7,0.2,3,1.8,2.9,3.5l-0.5,8.2c-0.1,1.8-1.6,3.2-3.4,3.1c-7.3-0.1-12.1-0.6-14.5-1.5c-2.3-0.8-4.1-1.9-5.3-3.2
				c-1.2-1.3-1.8-3.2-1.8-5.8V86.4z"/>
		</g>
		<g>
			<path class="st0" d="M158,86.4h-1.6c-1.8,0-3.3-1.5-3.3-3.3v-6.2c0-1.8,1.5-3.3,3.3-3.3h1.7v-5.4c0-1.5,1-2.9,2.5-3.2l13.2-3.3
				c2.1-0.5,4.1,1.1,4.1,3.2v8.7h3.5c1.8,0,3.3,1.5,3.3,3.3v6.2c0,1.8-1.5,3.3-3.3,3.3h-3.5v22.6c0.8,0.2,1.7,0.3,2.7,0.5
				c0,0,0,0,0,0c1.7,0.2,3,1.8,2.9,3.5l-0.5,8.2c-0.1,1.8-1.6,3.2-3.4,3.1c-7.3-0.1-12.1-0.6-14.5-1.5c-2.3-0.8-4.1-1.9-5.3-3.2
				c-1.2-1.3-1.8-3.2-1.8-5.8V86.4z"/>
		</g>
		<g>
			<path class="st0" d="M192.8,64.2c0-1.5,0.2-2.7,0.5-3.8c0.3-1,0.9-1.9,1.7-2.5c0.8-0.6,2-1.1,3.4-1.4c1.4-0.3,3.3-0.4,5.5-0.4
				c2.2,0,4,0.1,5.4,0.4c1.4,0.3,2.5,0.7,3.4,1.4c0.8,0.6,1.4,1.5,1.7,2.5c0.3,1,0.5,2.3,0.5,3.8c0,1.5-0.2,2.7-0.5,3.7
				c-0.3,1-0.9,1.8-1.7,2.4c-0.8,0.6-1.9,1.1-3.4,1.3c-1.4,0.2-3.2,0.4-5.4,0.4c-1.6,0-3.1-0.1-4.4-0.2c-1.4-0.1-2.5-0.4-3.5-1
				c-1-0.5-1.8-1.3-2.3-2.4C193,67.6,192.8,66.1,192.8,64.2z M211.3,123.3h-14.9c-1.4,0-2.5-1.1-2.5-2.5V78.3c0-1.2,0.9-2.3,2.2-2.5
				l14.9-1.9c1.5-0.2,2.8,1,2.8,2.5v44.5C213.7,122.2,212.6,123.3,211.3,123.3z"/>
		</g>
	</g>
	<g>
		<path class="st1" d="M581.7,131.7c1.2,0.3,2.4,0.5,3.6,0.7c2.4,0.3,4.8,0.3,7.2,0c4.8-0.6,9.4-2.1,13.4-4.7l-0.1-0.2
			c-2.3,0.7-4.5,1.2-6.7,1.7c-2.3,0.4-4.5,0.7-6.8,0.8c-4.5,0.2-9.1,0.1-13.5-1.1c-4.4-1.2-8.6-3.2-12.4-5.8
			c-3.8-2.6-7.1-5.9-9.9-9.7l-0.2,0.1c2.5,4,5.7,7.5,9.4,10.5c3,2.4,6.4,4.3,9.9,5.8c-0.2,0.2-0.4,0.4-0.5,0.7l-0.3,1.2l-0.2-0.1
			c-1.3-0.4-2,0.2-2.2,1.1c-0.1,0.4-0.1,0.8,0,1.1l-6.6-1.9c-2-0.6-4,0.6-4.6,2.5l-6,20.8c-0.6,2,0.6,4,2.5,4.6l20.8,6
			c2,0.6,4-0.6,4.6-2.5l6-20.8c0.6-2-0.6-4-2.5-4.6l-6.7-1.9c0.3-0.2,0.4-0.6,0.5-1c0.3-0.9,0.2-1.7-1.1-2.1l-0.2-0.1l0.3-1.2
			c0.1-0.2,0.1-0.4,0-0.6c0.2,0,0.3,0.1,0.5,0.1C580.5,131.4,581.1,131.5,581.7,131.7z"/>
		<g>
			<g>
				<path class="st2" d="M602.8,68.8c-0.5-0.4-0.9-0.9-1.1-1.4c-1.5-3.8-3-7.6-4.5-11.4c-0.3-0.8-0.8-1.1-1.5-0.5
					c-4.4,3.4-8.7,6.9-10,12.8c-0.2,0.8-0.4,1.4-1.4,1.5c-8.9,0.2-16.7,4.3-24.9,6.9c-3.1,1-6.1,2.4-8.5,4.6c-1.6,1.5-3,1.4-4.6,0.2
					c-2.3-1.8-5.5-3.5-8.3-4.2c0.1,0.3,0.2,0.5,0.3,0.8c3,7.5,6.7,14.8,11.4,21.4c2.4,3.3,4.9,6.5,7.8,9.4c1,1,2,2,3.1,2.9
					c1.9,1.6,3.9,3.1,5.8,4.3c3.6,2.3,7.3,4.1,11.1,5.3c1.9,0.6,3.9,1.1,5.9,1.5c0.8,0.1,1.6,0.2,2.4,0.3c3-1.1,5.9-2.4,8.8-3.8
					c13.5-6.7,21.4-19.7,17.2-34.3C610,79,607.8,73.2,602.8,68.8z"/>
				<path class="st2" d="M577.2,25c-2.6-1.5-5.2-2.8-7.9-3.9c-0.5,0.5-1,1.1-1.4,1.8c-4.6,7.3-9.2,14.7-12.5,22.7
					C554,49,551,53.4,550.5,57c-0.5,3.8,3.5,6.1,6.8,6.5c6.9,1,6.8-6.3,8.7-10.9c2.6-6.5,6.2-12.3,10.3-17.9
					c2.4-3.3,5.8-0.9,5.8,2.2c-0.1,2.5,0.4,5,0.1,7.5c-0.5,5.4-1.5,10.7-1.5,16.2c0,6.5,0.8,12.9,0.6,19.3c-0.1,3.4,1.1,6.5,4.4,8.1
					c2.7,1.3,5.6,2.2,8.5,2.9c10.7,2.4,21.1,0.7,31.6-0.9c4.7-0.9,9.4-1.6,14-2.7c0.1,0,0.1,0,0.2,0c1.4-2.7,2.7-5.4,3.8-8.1
					c0.8-1.9,1.5-3.8,2.2-5.7l1-2.9c0.3-1,0.6-2,0.9-2.9c1.2-3.9,2.1-7.9,2.7-11.9c0.7-4,1-8.1,0.9-12.1c0-1-0.1-2.1-0.1-3.1
					c-0.3-2.3-0.8-4.5-1.5-6.5c-1.3-3.5-3.3-6.6-5.9-9l0,0l0,0c-1.3-1.1-2.7-2.2-4.4-3.1l-0.1,0c-0.5-0.3-1.1-0.6-1.7-0.8
					c-0.3-0.1-0.5-0.2-0.8-0.3l0,0l0,0c-0.2-0.1-0.5-0.2-0.7-0.3l-0.1,0c-0.2-0.1-0.3-0.1-0.5-0.2l0,0l0,0c-0.1,0-0.2-0.1-0.3-0.1
					c-0.3-0.1-0.6-0.2-1-0.3l0,0c-2.8-0.8-5.7-1.2-8.6-1.2c-0.9,0-1.8,0-2.7,0.1c-3.8,0.3-7.6,1.1-11.3,2.4
					c-6.1,2.2-19.4,11.9-21.6,13.6c-1.7-1.4-4.3-3.6-4.7-3.8C582.9,28.6,580.1,26.7,577.2,25z"/>
				<g>
					<path class="st3" d="M593.5,44.3c-2.1,0.2-3.9-0.4-4-2.5c-0.1-2.4,1.6-4,3.9-4.5c2.3-0.5,3.2,1.2,3.5,2.9
						C597.4,42.8,595.5,43.7,593.5,44.3z"/>
					<path class="st3" d="M632.7,37.1c-2.2,0.2-3.7-0.5-4.1-2.7c-0.3-2,0.3-4.1,2.6-4.3c2.5-0.2,3.5,2.1,4.2,4
						C636.1,36.5,634,36.6,632.7,37.1z"/>
					<path class="st3" d="M598.1,65.5c0.2,1.6,0.9,3.7-0.9,3.9c-2.1,0.2-4.8,1.2-6.6-1.1c-0.3-0.4-0.5-1.1-0.4-1.4
						c1.2-2.2,2.3-4.6,3.8-6.6c0.7-0.9,2-0.2,2.6,0.8C597.5,62.6,598.2,64,598.1,65.5z"/>
					<path class="st3" d="M560.1,89.7c-1.8,0.9-3.1-0.3-3.8-1.9c-0.6-1.3,0.3-2.3,1.3-2.6c1.7-0.6,3.4-0.2,4.1,1.5
						C562.4,88.1,561.2,89.1,560.1,89.7z"/>
					<path class="st3" d="M582.7,81.8c-1.3,0.2-2.7-0.2-3.2-1.7c-0.6-1.7,0.6-2.6,2-3c1.5-0.4,2.8,0.4,3.2,1.8
						C585.2,80.4,584,81.5,582.7,81.8z"/>
					<path class="st1" d="M544.9,84c-1.2-0.7-2.6-1.1-3.7-2.2c-0.4-0.4-1-0.5-1.6-0.4c1.1,2.7,2.4,5.3,3.8,7.8
						c1.4-1.1,3.2-3.5,2.8-4.2C545.9,84.6,545.3,84.3,544.9,84z"/>
					<path class="st1" d="M588,100.1c-1-1-1.8-0.2-2.2,0.3c-1.1,1.5-2.9,3.1-5.3,4.4c0,0-0.6,0.2-1.4,0.5c-0.4-0.4-0.7-1.2-0.8-1.6
						c-0.6-1.5-0.6-3.3-1-4.8c-0.3-1.2,0.2-1.8,1.4-2c2.2-0.4,3.5-1.8,3.5-4c0.1-2.1-1.1-3.6-3.1-4.5c-4.8-2.1-9.1-0.4-11.4,4.6
						c-0.7,1.5-1.5,3.2-0.4,4.8c1.1,1.7,2.9,1.2,4.4,0.8c1.3-0.3,1.8,0,2,1.4c0.3,1.6,1.1,3.5,1.1,5.1c0,0.6,0.1,1.2,0,1.7
						c-2.5,0.6-4.9,0.5-6.6,0.2c-0.6-0.1-2-0.2-1.8,1.2c0.2,1.4,1,1.8,2.1,2c2.3,0.5,7,0.8,10.8-0.7s7.1-4.1,8.4-6.1
						C588.6,102.4,589.2,101.3,588,100.1z"/>
				</g>
				<path class="st1" d="M656.2,29.9c-1.4-3.9-3.8-7.5-6.8-10.3c-1.5-1.3-3.1-2.6-5-3.5c-0.6-0.4-1.3-0.7-2-1
					c-0.3-0.1-0.5-0.2-0.9-0.4c-0.3-0.1-0.7-0.3-1-0.4c-0.2-0.1-0.3-0.1-0.5-0.2c-0.5-0.2-1.5-0.5-1.5-0.5l-0.1,0
					c-24.2-4.8-37.5,9.4-44,16.3c-0.4,0.4-0.7,0.7-1,1.1c-1,1-0.1,1.9-0.1,2c0.9,0.9,1.8,0.1,2.5-0.5l0.1-0.1
					c4.8-4.5,10.5-7.9,16.5-10c3.6-1.3,7.3-2.1,11-2.4c3.7-0.3,7.3,0,10.8,1l0.1,0c0.2,0.1,0.5,0.1,0.8,0.2c0.1,0,0.3,0.1,0.4,0.1
					c0.2,0.1,0.3,0.1,0.5,0.2c0.2,0.1,0.5,0.2,0.7,0.2c0.3,0.1,0.5,0.2,0.8,0.4c0.6,0.2,1.1,0.5,1.5,0.7l0.1,0.1
					c1.6,0.8,2.9,1.9,4.1,2.9c2.5,2.3,4.4,5.3,5.6,8.5c1.1,3.1,1.7,6.7,1.7,10.7c0,3.7-0.3,7.6-0.9,11.5c-0.6,3.7-1.5,7.6-2.7,11.4
					c-0.1,0.4-0.3,0.8-0.4,1.2c-0.2,0.5-0.3,1.1-0.5,1.6l-1,2.8l0,0.1c-0.7,1.8-1.4,3.6-2.2,5.4c-1.3,3-2.8,5.9-4.3,8.6
					c-4.2,1-8.4,1.6-12.6,2.4c-3.3,0.5-6.6,1-9.9,1.4c-0.2-3.5-1-7-2.4-10.2c-2.1-4.6-4-9.1-7.3-12.9c12.8,0.7,24.2-3.7,34.4-11.9
					c1-0.8,1.8-2.1,0.7-3.3c-1.1-1.2-2.5-1.1-3.8,0c-3.7,3.3-7.9,5.8-12.4,7.7c-7.1,2.9-5.2,2.9-7-3.9c-0.7-2.7-0.2-3.9,2.8-4.4
					c2-0.3,4.4-1,4.8-3.5c0.4-2.6-1.3-4.4-3.2-5.8c-5-3.9-12.3-2.6-15.8,2.8c-2.5,4-0.9,8.3,3.5,8.1c3.9-0.1,4.3,1.9,4.5,4.7
					c0.1,1.2,0.2,2.4,0.5,3.6c0.3,1.1-0.2,1.5-1.2,1.6c-3.5,0.3-7,0.7-10.5,0.3c-1.4-3.9-2.8-7.8-4.2-11.7c-0.6-1.6-1.9-2.4-3.4-1.5
					c-5.5,3.4-10.3,7.6-13.2,13.4c-0.5,1.1-1.2,1.6-1.9,2c-0.1-2-0.2-4-0.2-6c0-5.5,1-10.7,1.5-16.2c0.2-2.5-0.2-5-0.1-7.5
					c0.1-3.1-3.3-5.5-5.8-2.2c-4.2,5.6-7.8,11.4-10.3,17.9c-1.8,4.7-1.8,11.9-8.7,10.9c-3.3-0.5-7.3-2.7-6.8-6.5
					c0.5-3.6,3.5-8,4.9-11.4c3.3-8,7.9-15.4,12.5-22.7c0.2-0.3,0.3-0.5,0.5-0.8c2.8,1.1,5.5,2.4,8.1,3.9c2.8,1.7,5.6,3.6,8.2,5.7
					c0.5,0.4,2.2,1.2,3.2,0.1c1.2-1.3-0.4-3-1.2-3.9c-3.3-3.5-8.4-8.6-14.5-12.8c-12.5-8.5-29.9-13.6-41.4-2.6
					c-8.9,8.6-16.2,26.2-0.2,61.4c0.2,0.5,0.4,0.9,0.5,1.2c3,7.3,7.4,14.9,13.1,22.8c2.9,3.9,5.7,7.2,8.7,10.1
					c3.5,3.4,7,6.2,10.5,8.4c4,2.6,8.1,4.5,12.3,5.9c2.4,0.8,4.8,1.4,7.2,1.7c2.2,0.4,4.4,0.6,6.6,0.6c0.1,0,0.2,0,0.4,0
					c3,0,6-0.3,8.9-0.9c1.5-0.3,2.9-0.6,4.4-1.1c4.3-1.3,8.6-3.1,12.6-5.6c3.7-2.2,7.3-4.9,11-8.2c1-0.9,24.3-22.3,30.3-53.9
					c0.7-4.4,1.1-8.7,1-12.9C658.2,37.7,657.5,33.6,656.2,29.9z M535.7,68.6c-0.3-1.2-0.6-2.4-0.9-3.5c-0.4-1.3-0.7-2.3-1-3.2
					c-0.6-1.9-1.1-3.4-1.5-5.9c-0.7-3.8-1-8.3-0.9-13.1c0-3.9,0.5-7.2,1.4-10.1c1.1-3.2,2.6-5.9,4.6-7.9c0.2-0.2,0.4-0.3,0.6-0.5
					c0.4-0.4,0.7-0.7,1.1-0.9l0.1-0.1c0.4-0.3,0.9-0.6,1.4-1c0.1-0.1,0.3-0.2,0.4-0.3c1.2-0.7,2.7-1.4,4.3-1.9
					c2.9-0.9,6.3-1.3,10.2-1c2.9,0.2,6,0.8,9.1,1.7c-0.2,0.3-0.4,0.6-0.6,1c-5.3,9.4-11.3,18.5-14.6,28.9c-1.2,3.7-2.3,7.5,0.2,11.2
					c2.3,3.3,6.3,5,10.3,5.1c5.3,0.2,6.1-1.3,8.3-5.5c2.3-4.3,8.4-7.8,9.4-1.6c0,0.2,0.1,0.3,0.1,0.5c0.3,2.3,0.3,4.7,0.3,7
					c-10.2,2-19.9,5.5-29,10.6c-1.1,0.6-1.8,0.6-2.9-0.1c-2.2-1.3-4.5-2.3-6.8-3.2c-0.6-0.2-1.3-0.6-2.1-1
					C536.7,72.2,536.2,70.3,535.7,68.6z M588.5,122.1c-1.7-0.1-3.4-0.2-5-0.5c-1.9-0.3-3.9-0.8-5.7-1.4c-3.7-1.2-7.3-3-10.8-5.2
					c-3.1-2-6.2-4.5-9.3-7.5c-2.6-2.5-5.1-5.5-7.7-9c-4.5-6.1-8.3-13-11.4-20.5c-0.1-0.2-0.2-0.4-0.3-0.7c2.7,0.7,5.7,2.4,7.8,4
					c1.6,1.2,3,1.3,4.6-0.2c2.4-2.2,5.4-3.7,8.5-4.6c6.2-1.9,12.2-4.8,18.6-6.1c1.6-0.3,1.9-0.5,3.3-0.6c1-0.1,2-0.2,3.1-0.2
					c1,0,1.2-0.7,1.4-1.5c1.3-5.9,5.6-9.4,10-12.8c0.7-0.6,1.2-0.3,1.5,0.5c1.5,3.8,3,7.6,4.5,11.4c0.2,0.5,0.7,1,1.1,1.4
					c5,4.3,7.2,10.2,8.9,16.3c0.6,2.3,1,4.5,1.1,6.7c0,0.1-0.1,3.5-0.1,3.6c-1,10.3-8,19-18.2,24
					C592.5,120.4,590.5,121.3,588.5,122.1z M630.6,99.6c-2.8,3.5-5.5,6.4-8.2,8.8c-3.3,2.9-6.5,5.3-9.7,7.2
					c-3.6,2.1-7.3,3.8-11.1,4.9c-1.1,0.3-2.2,0.6-3.2,0.8c-0.6,0.1-1.1,0.2-1.7,0.3c2-1.1,3.9-2.2,5.8-3.4
					c8.2-5.1,12.9-14.1,13.5-23.2c6.8-0.6,13.5-1.9,20.1-3.4C634.4,94.4,632.6,97.1,630.6,99.6z"/>
			</g>
			<g>
				
					<rect x="585.7" y="85.1" transform="matrix(0.8672 -0.498 0.498 0.8672 36.4629 307.5738)" class="st1" width="18.2" height="0.7"/>
			</g>
			<g>
				
					<rect x="590.3" y="88.9" transform="matrix(0.8661 -0.4999 0.4999 0.8661 35.6117 311.4085)" class="st1" width="17.3" height="0.7"/>
			</g>
			<g>
				
					<rect x="591.5" y="95.2" transform="matrix(0.8725 -0.4885 0.4885 0.8725 29.7985 305.3521)" class="st1" width="17.3" height="0.7"/>
			</g>
			<g>
				
					<rect x="540.3" y="106.3" transform="matrix(0.8614 -0.5079 0.5079 0.8614 22.1275 294.2823)" class="st1" width="20.1" height="0.7"/>
			</g>
			<g>
				
					<rect x="540.5" y="113.1" transform="matrix(0.8801 -0.4747 0.4747 0.8801 12.1077 274.8785)" class="st1" width="19.7" height="0.7"/>
			</g>
			<g>
				
					<rect x="546.4" y="117.5" transform="matrix(0.8783 -0.4782 0.4782 0.8783 11.2868 279.9478)" class="st1" width="18.2" height="0.7"/>
			</g>
		</g>
		<path class="st2" d="M585.1,140.1l-18.8-5.7c-1.3-0.4-2.7,0.3-3,1.6l-5.7,18.8c-0.4,1.3,0.3,2.7,1.6,3l18.8,5.7
			c1.3,0.4,2.7-0.3,3-1.6l5.7-18.8C587.1,141.9,586.4,140.5,585.1,140.1z"/>
		<g>
			
				<rect x="566.9" y="140.2" transform="matrix(0.2872 -0.9579 0.9579 0.2872 269.4818 645.3196)" class="st1" width="2.8" height="2.7"/>
			<path class="st1" d="M571.2,140l-1.3,4.5l-4.4-1.3l1.3-4.5L571.2,140 M566.1,137.3l-2,6.6l6.5,1.9l2-6.6L566.1,137.3z"/>
		</g>
		<g>
			
				<rect x="563.3" y="152" transform="matrix(0.2872 -0.9579 0.9579 0.2872 255.6287 650.1648)" class="st1" width="2.8" height="2.7"/>
			<path class="st1" d="M567.5,151.7l-1.3,4.5l-4.4-1.3l1.3-4.5L567.5,151.7 M562.4,149.1l-2,6.6l6.5,1.9l2-6.6L562.4,149.1z"/>
		</g>
		<g>
			
				<rect x="578.2" y="143.4" transform="matrix(0.2872 -0.9579 0.9579 0.2872 274.475 658.3721)" class="st1" width="2.8" height="2.7"/>
			<path class="st1" d="M582.5,143.2l-1.3,4.5l-4.4-1.3l1.3-4.5L582.5,143.2 M577.3,140.5l-2,6.6l6.5,1.9l2-6.6L577.3,140.5z"/>
		</g>
	</g>
</g>
</svg>
